<svg xmlns="http://www.w3.org/2000/svg" viewBox="0 0 334.1 112.1" xml:space="preserve"><path fill="#0082CA" d="M47.3 76.8v21c0 .7-.4 1.1-1.1 1.1h-4.7c-.7 0-1.1-.4-1.1-1.1V78.3c0-5.7-1.4-7.5-4.8-7.5-2.8 0-5.7 1.2-8.4 2.9.1 1 .2 2 .2 3.1v21c0 .7-.4 1.1-1.1 1.1h-4.7c-.7 0-1.1-.4-1.1-1.1V78.3c0-5.7-1.5-7.5-4.9-7.5-2.8 0-5.8 1.3-8.5 3.1V98c0 .6-.4 1-1 1H1c-.6 0-1-.4-1-1V66.8c0-.7.4-1.1 1.1-1.1h4.2c.7 0 1.1.4 1.1 1.1v1.9c3.5-2.7 7-3.9 10.8-3.9 4.1 0 6.9 1.5 8.5 4.4 3.6-3.1 7.4-4.4 11.4-4.4 6.9 0 10.2 3.9 10.2 12zm31.5-10.1v31.1c0 .7-.4 1.1-1.1 1.1h-4.3c-.7 0-1.1-.4-1.1-1.1v-2c-2.7 2.7-6.2 3.9-10.3 3.9-7.2 0-11-3.8-11-11.9v-21c0-.7.4-1.1 1.1-1.1h4.7c.7 0 1.1.4 1.1 1.1v19.6c0 5.6 1.9 7.4 5.6 7.4 2.9 0 5.8-1 8.4-3.3V66.7c0-.6.4-1 1-1h4.8c.7 0 1.1.4 1.1 1zm32.6-13.9v45c0 .7-.4 1.1-1.1 1.1h-4.2c-.7 0-1.1-.4-1.1-1.1v-1.9c-2.3 2.6-5.6 3.8-9.4 3.8-8.3 0-13.6-5.6-13.6-17.3s5.1-17.6 14.6-17.6c2.9 0 5.5.6 7.8 1.9V52.8c0-.6.4-1 1-1h4.9c.7 0 1.1.4 1.1 1zm-6.9 38.3V72.2c-1.8-.9-3.9-1.5-6.7-1.5-6.1 0-8.7 3-8.7 11.3 0 8.6 2.8 11.8 7.9 11.8 2.8.1 5.4-.9 7.5-2.7zM144 52.8v45c0 .7-.4 1.1-1.1 1.1h-4.2c-.7 0-1.1-.4-1.1-1.1v-1.9c-2.3 2.6-5.5 3.8-9.4 3.8-8.3 0-13.6-5.6-13.6-17.3s5.1-17.6 14.6-17.6c2.9 0 5.5.6 7.8 1.9V52.8c0-.6.4-1 1-1h4.9c.7 0 1.1.4 1.1 1zm-6.9 38.3V72.2c-1.8-.9-3.9-1.5-6.7-1.5-6.1 0-8.7 3-8.7 11.3 0 8.6 2.8 11.8 7.9 11.8 2.8.1 5.4-.9 7.5-2.7zm39.3-23.7-12.1 33.9c-2.9 8.5-6.2 10.8-12.4 10.8-1.2 0-2.6-.1-4.2-.3-.6-.1-1-.5-1-1.2v-3.5c0-.8.5-1.1 1.2-1 .8.1 1.7.1 2.7.1 3.6 0 5.1-1 6.5-4.8l.8-2.2-11.3-32c-.4-.9.2-1.6 1.3-1.6h4.1c.8 0 1.3.3 1.6 1.3l4.2 11.7c1.3 3.9 2.5 8.4 3.8 13 1.2-4.7 2.4-9.2 3.7-13l4.1-11.7c.4-.9.8-1.3 1.6-1.3h4.2c1 .1 1.5.7 1.2 1.8zm40.1 14.3c0 12.3-5.4 18-17.1 18-3.7 0-7.5-.6-11.4-1.9-.6-.2-.9-.6-.9-1.4V52.8c0-.6.4-1 1-1h4.9c.6 0 1 .4 1 1v15.1c2.7-2 5.8-3.1 9.6-3.1 8.2 0 12.9 5.5 12.9 16.9zm-7.2 0c0-8-2.3-11-7.2-11-2.6 0-5.5.8-8.2 2.5v20c2 .4 3.9.7 5.8.7 6.6 0 9.6-3 9.6-12.2zm10.3.6c0-11.9 4.6-17.5 15.4-17.5s15.4 5.6 15.4 17.5-4.6 17.5-15.4 17.5-15.4-5.6-15.4-17.5zm23.6 0c0-8.7-2.4-11.5-8.3-11.5-6 0-8.3 2.8-8.3 11.5s2.4 11.5 8.3 11.5c6 0 8.3-2.9 8.3-11.5zm10.3 0c0-11.9 4.6-17.5 15.4-17.5s15.4 5.6 15.4 17.5-4.6 17.5-15.4 17.5-15.4-5.6-15.4-17.5zm23.6 0c0-8.7-2.4-11.5-8.3-11.5-6 0-8.3 2.8-8.3 11.5s2.4 11.5 8.3 11.5c6 0 8.3-2.9 8.3-11.5zm30.1 12.2v3.7c0 .6-.4 1.1-1 1.2-1.6.3-3.4.4-5.1.4-7.4 0-10.5-2.9-10.5-11.5v-17h-4.4c-.7 0-1.1-.4-1.1-1.1v-3.5c0-.7.4-1.1 1.1-1.1h4.4v-9.3c0-.7.4-1.1 1.1-1.1h4.7c.7 0 1.1.4 1.1 1.1v9.3h7.9c.7 0 1.1.4 1.1 1.1v3.5c0 .7-.4 1.1-1.1 1.1h-7.9V87c0 5.5 1.1 6.7 4.9 6.7 1.2 0 2.4-.1 3.6-.2.8 0 1.2.2 1.2 1zm23.6-23.2c-1.9-.3-4.2-.6-6.9-.6-5.5 0-7.1 1.5-7.1 4 0 3.2 2.5 4 6.2 4.9l.9.2c5 1.3 10.2 2.8 10.2 10.1 0 6.2-3.9 9.9-13.5 9.9-2.7 0-5.8-.3-9.4-1-.7-.1-.9-.6-.9-1.2v-3.7c0-.9.4-1.1 1.2-1 2.6.5 5.3.9 8.3.9 5.3 0 7.2-1.3 7.2-4 0-3.2-2.8-3.7-6.9-4.7l-.8-.2c-4.5-1.2-9.5-3.1-9.5-10.4 0-6.7 4.2-9.7 13.5-9.7 2.4 0 4.9.2 7.8.8.7.1.9.6.9 1.3v3.3c.2.6-.1 1.3-1.2 1.1zm-72.5-57.1c-.9-8-7.7-14.2-15.9-14.2s-15 6.2-15.9 14.2c-8 .9-14.2 7.7-14.2 15.9 0 8.8 7.2 16 16 16h12.3v3.4c0 3.7 3 6.7 6.7 6.7h9.3c11.6 0 21-9.4 21-21 0-11.1-8.5-20.1-19.3-21zm-10.5 21.4c2.3-2.3 5.4-3.6 8.7-3.6h3.7c-.9 5.9-6 10.5-12.2 10.5h-3.7c.4-2.6 1.6-5 3.5-6.9zm-5.4-3.4c-1.4-1.2-3.8-4.1-3.8-9s2.4-7.8 3.8-9c1.4 1.2 3.8 4 3.8 9 0 4.9-2.5 7.8-3.8 9zm14.1 20.3h-9.4c-1.7 0-3-1.4-3-3v-3.4h3.8c8.8 0 16-7.2 16-16v-1.8h-7.5c-3 0-6 .8-8.5 2.4 1-1.9 1.8-4.4 1.8-7.5 0-8.9-6.3-12.7-6.6-12.8l-.9-.5-.9.5c-.3.2-6.6 3.9-6.6 12.8 0 7 3.9 10.8 5.6 12.2v7h-12.2c-6.8 0-12.3-5.5-12.3-12.3s5.5-12.3 12.3-12.3h1.8V16c0-6.8 5.5-12.3 12.3-12.3s12.3 5.5 12.3 12.3v1.8h1.8c9.6 0 17.4 7.8 17.4 17.3s-7.6 17.4-17.2 17.4z"/></svg>